# xmcd CD database file
#
# Track frame offsets:
#	150
#	13542
#	28565
#	42212
#	55992
#	69402
#	83562
#	96375
#	108607
#	120752
#	133825
#	146197
#	158585
#	172135
#	183965
#	196762
#	208697
#	221965
#
# Disc length: 3128 seconds
#
# Revision: 2
# Processed by: cddbd v1.5.2PL0 Copyright (c) Steve Scherf et al.
# Submitted via: CDex 1.51
#
DISCID=000c3612
DTITLE=Memphis Minnie - The Queen Of The Blues 1929-1941 CD2
DYEAR=1997
DGENRE=Blues
TTITLE0=Weary Woman's Blues
TTITLE1=Doctor Doctor Blues
TTITLE2=New Orleans Stop Time
TTITLE3=I'm A Bad Luck Woman
TTITLE4=Caught Me Wrong Again
TTITLE5=It's Hard To Be Mistreated
TTITLE6=I'd Rather See Him Dead
TTITLE7=Black Widow Stinger
TTITLE8=Poor And Wandering Woman Blues
TTITLE9=Worried Baby Blues
TTITLE10=Nothing In Rambling
TTITLE11=Ma Rainey
TTITLE12=This Is Your Last Chance
TTITLE13=I'm Not A Bad Gal
TTITLE14=Don't Turn The Card
TTITLE15=Looking The World Over
TTITLE16=It Was You Baby
TTITLE17=I Am Sailin'
EXTD=YEAR: 1997
EXTT0=
EXTT1=
EXTT2=
EXTT3=
EXTT4=
EXTT5=
EXTT6=
EXTT7=
EXTT8=
EXTT9=
EXTT10=
EXTT11=
EXTT12=
EXTT13=
EXTT14=
EXTT15=
EXTT16=
EXTT17=
PLAYORDER=
